<?xml version="1.0" encoding="UTF-8" standalone="no"?>
<!-- Created with Inkscape (http://www.inkscape.org/) -->

<svg
   xmlns:dc="http://purl.org/dc/elements/1.1/"
   xmlns:cc="http://creativecommons.org/ns#"
   xmlns:rdf="http://www.w3.org/1999/02/22-rdf-syntax-ns#"
   xmlns:svg="http://www.w3.org/2000/svg"
   xmlns="http://www.w3.org/2000/svg"
   xmlns:sodipodi="http://sodipodi.sourceforge.net/DTD/sodipodi-0.dtd"
   xmlns:inkscape="http://www.inkscape.org/namespaces/inkscape"
   id="svg2"
   version="1.1"
   inkscape:version="0.48.2 r9819"
   width="1057.605"
   height="1087.1788"
   xml:space="preserve"
   sodipodi:docname="pixel77-free-vector-royal-crest-1012.svg"
   inkscape:export-filename="/Users/thoward/repo/riakon/riakon.github.com/pixel77-free-vector-royal-crest-1012.png"
   inkscape:export-xdpi="90"
   inkscape:export-ydpi="90"><metadata
     id="metadata8"><rdf:RDF><cc:Work
         rdf:about=""><dc:format>image/svg+xml</dc:format><dc:type
           rdf:resource="http://purl.org/dc/dcmitype/StillImage" /><dc:title /></cc:Work></rdf:RDF></metadata><defs
     id="defs6"><clipPath
       clipPathUnits="userSpaceOnUse"
       id="clipPath18"><path
         d="m 0,869.743 846.084,0 L 846.084,0 0,0 0,869.743 z"
         id="path20" /></clipPath></defs><sodipodi:namedview
     pagecolor="#ffffff"
     bordercolor="#666666"
     borderopacity="1"
     objecttolerance="10"
     gridtolerance="10"
     guidetolerance="10"
     inkscape:pageopacity="0"
     inkscape:pageshadow="2"
     inkscape:window-width="1855"
     inkscape:window-height="1368"
     id="namedview4"
     showgrid="false"
     inkscape:zoom="1.227965"
     inkscape:cx="92.706858"
     inkscape:cy="890.77153"
     inkscape:window-x="49"
     inkscape:window-y="0"
     inkscape:window-maximized="0"
     inkscape:current-layer="g10" /><g
     id="g10"
     inkscape:groupmode="layer"
     inkscape:label="pixel77-free-vector-royal-crest-1012"
     transform="matrix(1.25,0,0,-1.25,0,1087.1788)"><path
   d="m 0,0 846.085,0 0,869.743 L 0,869.743 0,0 z"
   style="fill:#ededed;fill-opacity:1;fill-rule:nonzero;stroke:none"
   id="path12" /><g
   clip-path="url(#clipPath18)"
   id="g16"><g
     transform="translate(274.1255,429.5381)"
     id="g22"><path
       inkscape:connector-curvature="0"
       id="path24"
       style="fill:#d95029;fill-opacity:1;fill-rule:nonzero;stroke:none"
       d="m 0,0 -0.011,0.088 -62.476,-24.792 40.634,-21.533 -24.104,-36.858 63.866,23.655 c -2.796,13.267 -5.256,33.018 -7.387,55.545 L 0,0 z" /></g><g
     transform="translate(651.3169,383.3008)"
     id="g26"><path
       inkscape:connector-curvature="0"
       id="path28"
       style="fill:#d95029;fill-opacity:1;fill-rule:nonzero;stroke:none"
       d="m 0,0 40.634,21.534 -73.739,29.261 c -2.277,-25.71 -4.958,-48.564 -8.052,-63.483 L 24.104,-36.857 0,0 z" /></g><g
     transform="translate(263.7026,511.6812)"
     id="g30"><path
       inkscape:connector-curvature="0"
       id="path32"
       style="fill:#911525;fill-opacity:1;fill-rule:nonzero;stroke:none"
       d="M 0,0 0,0 10.412,-82.055 10.423,-82.143 0,0 z" /></g><g
     transform="translate(274.1255,429.5381)"
     id="g34"><path
       inkscape:connector-curvature="0"
       id="path36"
       style="fill:#911525;fill-opacity:1;fill-rule:nonzero;stroke:none"
       d="M 0,0 10.522,-3.895 C 10.238,-0.896 9.96,2.15 9.688,5.237 L 0,0 z" /></g><g
     transform="translate(615.9604,605.8784)"
     id="g38"><path
       inkscape:connector-curvature="0"
       id="path40"
       style="fill:#911525;fill-opacity:1;fill-rule:nonzero;stroke:none"
       d="M 0,0 -1.68,7.527 -15.605,0 0,0 z" /></g><g
     transform="translate(498.6313,381.21)"
     id="g42"><path
       inkscape:connector-curvature="0"
       id="path44"
       style="fill:#4a2d33;fill-opacity:1;fill-rule:nonzero;stroke:none"
       d="M 0,0 7.372,-8.92 4.246,-0.436 C 4.322,0.131 3.902,1.494 1.09,4.73 -4.253,12.966 -14.516,28.139 -14.516,28.139 l 0,-10.7 0.017,0.019 C -14.677,5.932 -5.489,1.569 0,0" /></g><g
     transform="translate(290.7085,589.8784)"
     id="g46"><path
       inkscape:connector-curvature="0"
       id="path48"
       style="fill:#4a2d33;fill-opacity:1;fill-rule:nonzero;stroke:none"
       d="m 0,0 126.314,0 32.204,16 -175.101,0 c 0,0 1.251,-38.299 3.795,-85.111 L 2.82,-61.356 C 1.599,-38.381 0.651,-16.932 0,0" /></g><g
     transform="translate(298.3921,530.9385)"
     id="g50"><path
       inkscape:connector-curvature="0"
       id="path52"
       style="fill:#4a2d33;fill-opacity:1;fill-rule:nonzero;stroke:none"
       d="m 0,0 108.566,53.94 -111.05,0 C -1.795,36.585 -0.961,18.313 0,0" /></g><g
     transform="translate(406.2808,383.2603)"
     id="g54"><path
       inkscape:connector-curvature="0"
       id="path56"
       style="fill:#4a2d33;fill-opacity:1;fill-rule:nonzero;stroke:none"
       d="m 0,0 1.844,-0.915 c 0,0 -0.026,0.17 -0.047,0.487 0.289,-0.061 0.58,-0.12 0.873,-0.175 0,0.011 0,0.022 -10e-4,0.033 -0.296,0.056 -0.588,0.116 -0.874,0.185 -0.115,1.821 -0.056,8.147 5.214,15.774 0,0 -3.822,-4.356 -6.394,-9.574 C 0.292,9.14 2.309,12.569 3.391,17.31 10.802,49.792 37.01,53.14 37.01,53.14 16.26,66.331 -23.894,37.534 -13.806,11.203 -11.436,5.017 -6.22,1.656 0,0" /></g><g
     transform="translate(627.9595,605.8784)"
     id="g58"><path
       inkscape:connector-curvature="0"
       id="path60"
       style="fill:#4a2d33;fill-opacity:1;fill-rule:nonzero;stroke:none"
       d="m 0,0 -11.999,0 -15.605,0 -29.6,-16 40.621,0 c -2.445,-63.549 -9.063,-190.705 -18.685,-223.448 -17.44,-59.348 -47.076,-104.958 -88.084,-135.561 -24.355,-18.178 -45.748,-25.383 -53.565,-27.586 -7.817,2.203 -29.209,9.408 -53.566,27.586 -41.007,30.603 -70.643,76.213 -88.083,135.561 -3.932,13.382 -7.362,42.527 -10.211,76.652 l -15.369,-8.307 c 0.272,-3.087 0.55,-6.134 0.834,-9.132 2.131,-22.528 4.591,-42.278 7.387,-55.546 0.651,-3.092 1.321,-5.838 2.008,-8.177 45,-153.133 157,-175.133 157,-175.133 0,0 112,22 157,175.133 0.727,2.47 1.432,5.388 2.117,8.693 3.094,14.918 5.776,37.773 8.052,63.483 C -3.193,-97.732 0,0 0,0" /></g><g
     transform="translate(364.5757,417.4102)"
     id="g62"><path
       inkscape:connector-curvature="0"
       id="path64"
       style="fill:#4a2d33;fill-opacity:1;fill-rule:nonzero;stroke:none"
       d="m 0,0 c 3.61,3.866 10.715,9.25 23.34,11.222 0,0 -12.739,2.292 -22.402,-4.321 1.807,9.241 5.994,18.995 14.134,27.676 10.363,-0.734 23.412,-7.867 23.412,-7.867 -8.696,7.052 -16.267,9.929 -20.195,11.045 5.003,4.589 11.244,8.797 18.988,12.364 14.365,-6.036 18.098,-18.758 18.098,-18.758 -0.897,12.298 -9.104,18.418 -13.289,20.762 11.039,3.976 21.851,3.334 30.933,1.073 1.633,-7.126 -0.541,-19.416 -0.541,-19.416 4.462,6.929 4.932,14.241 4.776,18.215 11.886,-3.785 19.901,-9.799 19.901,-9.799 0,0 28.824,-16.969 48.824,-59.393 20,-42.424 12.728,-70.91 12.728,-70.91 l -18.182,-7.465 c 0,0 -13.334,-13.748 -18.183,-14.959 -4.847,-1.211 -6.665,-12.121 -6.665,-12.121 0,0 1.818,36.363 -15.153,38.787 -11.797,1.685 -39.699,12.163 -51.135,31.627 19.711,5.222 29.114,20.308 29.114,20.308 -12.687,-12.367 -25.158,-15.472 -31.195,-16.24 -0.009,0.02 -0.018,0.039 -0.027,0.06 -1.257,-0.159 -2.501,-0.257 -3.73,-0.302 l -0.002,0 c -3.62,-0.136 -7.11,0.195 -10.429,0.908 -2.899,5.859 -2.849,10.473 -2.849,10.473 -0.481,-3.436 -0.659,-6.698 -0.678,-9.555 -7.382,2.253 -13.758,6.344 -18.588,11.128 0.518,11.812 5.998,22.046 5.998,22.046 C 10.48,-19.625 7.666,-25.713 6.465,-30.153 4.26,-27.069 2.682,-23.884 1.849,-20.851 0.376,-15.485 -0.642,-8.127 0,0 m -50.385,-49.57 c 17.128,-58.285 46.156,-103.022 86.277,-132.965 22.328,-16.662 41.961,-23.815 50.575,-26.387 8.614,2.574 28.248,9.725 50.575,26.387 40.121,29.943 69.148,74.68 86.277,132.965 8.266,28.128 14.954,133.257 18.283,217.038 l -44.672,0 L -60.594,28.266 c 2.956,-35.815 6.416,-64.928 10.209,-77.836" /></g><g
     transform="translate(293.5288,528.522)"
     id="g66"><path
       inkscape:connector-curvature="0"
       id="path68"
       style="fill:#f7eadf;fill-opacity:1;fill-rule:nonzero;stroke:none"
       d="M 0,0 4.863,2.417 C 3.902,20.73 3.068,39.001 2.379,56.356 l 111.051,0 10.064,5 -126.314,0 C -2.169,44.424 -1.222,22.975 0,0" /></g><g
     transform="translate(606.1772,584.8784)"
     id="g70"><path
       inkscape:connector-curvature="0"
       id="path72"
       style="fill:#f7eadf;fill-opacity:1;fill-rule:nonzero;stroke:none"
       d="m 0,0 c -3.328,-83.782 -10.017,-188.911 -18.282,-217.039 -17.129,-58.285 -46.156,-103.021 -86.278,-132.964 -22.327,-16.663 -41.961,-23.813 -50.575,-26.387 -8.614,2.572 -28.247,9.724 -50.575,26.387 -40.121,29.943 -69.149,74.679 -86.276,132.964 -3.794,12.909 -7.254,42.022 -10.21,77.837 l -4.799,-2.594 c 2.849,-34.125 6.279,-63.27 10.211,-76.652 17.44,-59.348 47.076,-104.958 88.083,-135.561 24.357,-18.178 45.749,-25.383 53.566,-27.586 7.818,2.203 29.21,9.408 53.566,27.586 41.007,30.603 70.643,76.213 88.084,135.561 C -3.863,-185.705 2.754,-58.549 5.199,5 L -35.422,5 -44.672,0 0,0 z" /></g><g
     transform="translate(443.2905,436.3999)"
     id="g74"><path
       inkscape:connector-curvature="0"
       id="path76"
       style="fill:#f7eadf;fill-opacity:1;fill-rule:nonzero;stroke:none"
       d="m 0,0 c 0,0 -26.208,-3.348 -33.619,-35.83 -1.082,-4.74 -3.098,-8.17 -2.776,-11.495 2.572,5.219 6.394,9.574 6.394,9.574 -5.27,-7.626 -5.329,-13.953 -5.214,-15.774 0.286,-0.068 0.578,-0.129 0.875,-0.184 0,-0.011 0,-0.022 0,-0.033 -0.293,0.054 -0.583,0.114 -0.872,0.175 0.021,-0.318 0.046,-0.487 0.046,-0.487 l -1.844,0.914 c -6.219,1.657 -11.435,5.017 -13.806,11.203 C -60.903,-15.605 -20.75,13.191 0,0 m 40.825,-27.051 c 0,0 10.263,-15.173 15.606,-23.409 2.812,-3.236 3.232,-4.599 3.156,-5.166 l 3.126,-8.484 -7.372,8.92 c -5.489,1.569 -14.677,5.932 -14.499,17.459 l -0.017,-0.02 0,10.7 z M -72.25,-49.143 c 1.201,4.44 4.016,10.528 10.539,16.742 0,0 -5.481,-10.235 -5.999,-22.047 4.83,-4.784 11.206,-8.875 18.588,-11.128 0.019,2.858 0.197,6.119 0.679,9.555 0,0 -0.051,-4.614 2.848,-10.473 3.319,-0.713 6.809,-1.044 10.429,-0.908 l 0.002,0 c 1.229,0.045 2.474,0.144 3.73,0.302 0.009,-0.021 0.018,-0.04 0.027,-0.06 6.037,0.768 18.509,3.873 31.195,16.241 0,0 -9.403,-15.086 -29.114,-20.309 11.436,-19.464 39.338,-29.941 51.136,-31.627 16.97,-2.424 15.152,-38.787 15.152,-38.787 0,0 1.818,10.91 6.665,12.121 4.85,1.211 18.184,14.959 18.184,14.959 l 18.181,7.465 c 0,0 7.273,28.486 -12.727,70.91 -20,42.424 -48.825,59.394 -48.825,59.394 0,0 -8.015,6.013 -19.901,9.798 0.156,-3.974 -0.313,-11.285 -4.776,-18.214 0,0 2.174,12.289 0.541,19.416 -9.082,2.26 -19.894,2.902 -30.932,-1.074 4.184,-2.344 12.391,-8.464 13.288,-20.761 0,0 -3.733,12.722 -18.098,18.757 -7.744,-3.566 -13.985,-7.775 -18.988,-12.364 3.928,-1.116 11.499,-3.993 20.195,-11.044 0,0 -13.049,7.132 -23.412,7.866 -8.14,-8.68 -12.327,-18.435 -14.133,-27.675 9.662,6.612 22.401,4.32 22.401,4.32 -12.625,-1.972 -19.73,-7.356 -23.34,-11.222 -0.641,-8.127 0.377,-15.485 1.849,-20.85 0.833,-3.034 2.411,-6.219 4.616,-9.303" /></g><g
     transform="translate(274.1255,429.5381)"
     id="g78"><path
       inkscape:connector-curvature="0"
       id="path80"
       style="fill:#d95029;fill-opacity:1;fill-rule:nonzero;stroke:none"
       d="m 0,0 9.688,5.237 15.369,8.307 4.799,2.594 257.524,139.202 9.25,5 29.599,16 13.926,7.528 -149.904,0 -15.15,-7.528 -32.204,-16 -10.064,-5 L 24.267,101.4 19.403,98.984 3.795,91.229 -10.664,84.045 -10.423,82.143 0,0 z" /></g><g
     transform="translate(627.2085,677.6064)"
     id="g82"><path
       inkscape:connector-curvature="0"
       id="path84"
       style="fill:#4a2d33;fill-opacity:1;fill-rule:nonzero;stroke:none"
       d="m 0,0 -35.205,0 0,-27.215 -21.074,0 0,27.215 -31.096,0 0,-27.215 -21.074,0 0,27.215 -31.095,0 0,-27.215 -21.075,0 0,27.215 -31.094,0 0,-27.215 -21.076,0 0,27.215 -31.094,0 0,-27.215 -21.075,0 0,27.215 -31.094,0 0,-27.215 -21.075,0 0,27.215 -35.205,0 0,-54.43 L 0,-54.43 0,0 z" /></g></g><text
   xml:space="preserve"
   style="font-size:38.39999984px;font-style:italic;font-variant:normal;font-weight:bold;font-stretch:normal;line-height:125%;letter-spacing:0px;word-spacing:0px;fill:#f7eadf;fill-opacity:1;stroke:none;font-family:Rammetto One;-inkscape-font-specification:Rammetto One Bold Italic"
   x="493.18298"
   y="-269.06024"
   id="text3125"
   sodipodi:linespacing="125%"
   transform="matrix(0.88304889,0.46928101,0.46928101,-0.88304889,0,0)"><tspan
     sodipodi:role="line"
     id="tspan3127"
     x="493.18298"
     y="-269.06024"
     style="font-size:38.39999984px;font-style:italic;font-variant:normal;font-weight:bold;font-stretch:normal;letter-spacing:2.40000010000000019px;font-family:Rammetto One;-inkscape-font-specification:Rammetto One Bold Italic"
     rotate="0 0 0 0 0 0 0 0 0"
     dx="0 0 0 0">Riak ON!</tspan></text>

</g></svg>